<?xml version="1.0" encoding="UTF-8"?>
<svg id="Layer_1" data-name="Layer 1" xmlns="http://www.w3.org/2000/svg" viewBox="0 0 1254 1120">
  <defs>
    <style>
      .cls-1 {
        fill: #9ee7f1;
        stroke: #9ee7f1;
        stroke-width: 18;
      }
    </style>
  </defs>
  <path class="cls-1" d="M914.68,796.96c-11.05.07-22.26,3.51-29.72,3.26-5.56-.19-11.06,1.45-16.79,1.78-13.78.78-27.05,3.06-40.32,6.33-3.62.89-6.76,2.79-10.61,3.23-12.94,1.48-24.87,5.71-37.54,8.53-8.93,1.99-17.13,3.91-25.65,7.32l-19.69,7.88c-4.95,1.98-9.78,3.25-14.54,5.64l-22.34,11.24c-7.9,3.97-15.32,7.41-22.55,12.52-7.08,5-14.27,9.35-20.98,15.02-6.12,5.18-12.94,8.88-19.53,13.19-5.41,3.54-11,3.36-16.5-.13-3.42-2.17-6.85-3.89-9.49-7.36-1.71-2.25-5.4-2.09-7.57-3.93-13.06-11.13-26.87-21.1-42.99-27.51-7.34-2.92-12.99-7.68-19.94-10.89-15.96-7.37-31.88-14.58-48.87-18.84l-23.79-5.96c-10.65-2.67-21-4.55-31.3-7.89l-12.04-3.91c-6.49-2.11-67.58-9.45-75.8-9.49l-72.83-.34c-3.8-.02-6.1-5.04-6.14-8.4l-.44-38.92c-.04-3.86-.6-6.87-.05-10.88.63-4.57.71-9.92.18-14.63-1.11-9.75-.18-18.87-.32-28.54l-.18-12.54.28-9.8c.21-7.29.55-14.59.03-21.8-.66-9.11-1.52-17.92.36-27.16l-.46-96.51c-.05-10.09-.84-19.29-.08-29.32,1.07-14.2-.13-28.55.11-42.88l.2-11.98.04-157.2-.21-10.93.78-81.87c.05-4.86,1.8-11.97,7.1-12.75,8.08-1.19,16.55-.06,24.64.16l28.8.8,26.14,2.29c7.72.68,15.02,1.93,22.9,2.55,14.43,1.12,13.96,4.09,31.64,5.53,12.83,1.05,25.27,3.22,37.86,5.03,15.3,2.19,40.05,13.94,58.31,17.55,9.2,1.82,16.53,5.58,24.77,9.09,9.61,4.11,18.68,7.51,28.11,12.23l11.26,5.63c14.76,7.39,35.05,22.13,47.21,33.46l10.08,9.4c5.16-2.78,29.05-26.11,27.28-25l11.55-7.23c16.83-10.53,54.06-26.81,53.66-26.58l6.81-3.91,17.33-6.86c5.19-2.05,10.52-2.39,15.88-4.4,4.56-1.71,11.06.65,15.16-2.73s7.88-3.49,12.49-4.77c11.43-3.16,22.36-6.35,34.19-7.98l37.08-5.11c6.47-.89,12.4-3.51,18.89-4.11l42.74-3.95,25.37-.93c11.51-.42,22.56-.59,34.38-.35,3.11.06,7.99,5.12,8.03,8.22l.5,40.04c.14,10.9-.95,21.57.26,32.43.91,8.18,1.22,15.83-.36,24.32l.04,368.1c1.72,8.84,1.09,16.79.39,25.32-.85,10.26-.51,20.34.07,30.7.75,13.47.15,26.81-.05,40.31l-.57,39.59c-.05,3.64-3.6,7.12-7.25,7.15l-65.44.42ZM620.9,764.16l-.61-8.58.58-9.72v-66.1c0-3.52-1.67-6.58-.02-10.16,1.2-2.63-.71-5.52-.7-8.26l.24-47.44c.03-5.21,1.45-9.97.02-15.18-.77-2.8,1.36-23.75.33-35.37-.58-6.57-1.44-13.46-.08-19.89.86-4.04-.31-7.26-.35-11.21-.13-14.11-.71-28.03.19-42.11.25-3.93-.16-6.82-.17-10.88l-.52-164.61c-.02-4.81-1-8.27-.36-13.07.68-5.13-4.33-10.39-7.52-13.81l-5.72-6.12c-16.1-17.22-54.12-35.01-74.66-45.12-9.44-4.64-18.51-7.33-28.45-10.78l-14.73-5.11c-4.52-1.57-8.4-2.58-13.11-3.85-25.86-6.92-51.47-11.93-78.13-14.67-8.8-.9-17.84-4.54-31.35-5.66l-13.63-1.13-25.39-.96c-14.96-.56-29.69-.35-44.81-.46-2.64-.02-3.51,5.2-3.33,7.14.61,6.45-.44,12.84-.4,18.89.05,7.73,1.45,15.65-.17,23.1-1.12,5.16.45,9.34.44,14.46l-.18,99.09.17,9.96-.15,283.58c0,9.8-1.7,18.7-.42,28.25,1.02,7.56.5,14.68.01,22.26-.66,10.15-.48,20.13.14,30.27.9,14.65.43,29.95.38,44.57-.01,2.76-2.17,8.74,1.32,9.38,5.63,1.02,11.94.52,17.49-.11,20.31-2.3,32.64,1.41,46.05,1.3,12.14-.1,23.69,1.11,35.8,1.93,6.11.41,11.27,1.97,17.16,3.08,6.17,1.16,12.36,1.06,18.71,2.61,6.97,1.7,14.1,2.33,21.26,4.3l31.59,8.69,22,6.37,23.47,8.22c11.51,4.03,22.2,9.08,33.31,13.84,14.76,6.33,31.91,16.62,44.88,26.13,3.9,2.86,16.15,10.37,19.47,13.62,1.93,1.89,8.22,2.46,9.73.16.88-7.64.55-15.95-.12-23.5-1.69-18.86,2.03-63.37.33-87.32ZM633.24,849.76c-.13,2.25-2.85,34.71,5.34,28.27,7.27-5.71,15.23-9.98,22.15-16.07,5.24-4.61,10.78-8.22,16.29-12.17,2.62-1.88,5.07-2.33,7.87-3.74l24.65-12.4,23.72-10.02c6.33-2.67,12.66-4.1,18.79-6.65,6.26-2.6,11.83-4.37,18.28-6.19,26.24-7.39,51.55-15.41,78.77-19.15,24.58-3.38,47.93-6.39,72.4-6.7,5.6-.07,10.97-1.3,16.54-.94,11.33.71,22.26.25,33.76.18,1.38,0,2.23-3.93,2.23-5.69l.11-519.79c0-5.44.51-9.08.42-14.29l-.85-50.33c-7.57-.84-15.02.06-22.35.24l-29.28.7-16.89,1.07c-4.21.27-8.41.46-12.56,1.06l-50.79,7.34c-38.3,5.54-59.94,12.34-96.11,24.27-4.88,1.61-10.34,1.49-14.83,4.16s-8.81,3.83-13.41,5.81c-2.79,1.2-4.66,4.17-8.24,4.19-3.07.02-5.26,2.81-7.88,3.59-7.34,2.19-17.79,11.78-25.01,15.12-4.54,2.1-7.8,3.42-11.68,6.55-10.93,8.82-22.3,17.07-30.82,28.5-1.28,8.78,1.2,16.87-1.14,25.87l-.04,499.38c0,5.53,2.09,9.84.52,14.86-1.38,4.41.28,8.67.04,12.97ZM1095.94,394.79l.37-30.86c.15-12.36,1.19-24.24-.24-36.38-.95-7.99-.23-16.75-.49-24.75-1.8-2.33-5.86-5.89-8.81-6.14-8.34-.69-15.85-.03-24.31-.2-2.32-.05-6.6,3.62-5.75,5.74,1.35,3.34,5.96,4.67,9.08,4.73l17.83.35c3.04.06,1.29,3.36,1.29,5.22l.11,39.48.53,13.5.13,530.95c-9.68,2.15-18.26-.04-27.36,0l-91.8.37-26.61-.24-169.31.09c-12.47,0-23.94,1.4-36.17.19-13.23-1.3-26.05-.14-39.58-.53-14.52-.41-7.5,7.24-16.63,15.06-3.53,3.03-6.01,7.8-10.77,9.24l-20.38,6.18c-19.88,6.03-40.13,1.6-58.97-6.14-20.76-8.53-7.51-17.45-24.23-23.04-8.03-2.68-15.22-.56-23.28-.57l-96.96-.03-7.82.07-263.46.12c-2.05,0-3.19-1.55-3.93-2.18-1.14-.97.56-2.85.55-4.44l-.64-125,.27-30.65.52-427.1c5.51-1.77,10.63-.44,15.83-.05,1.81.13,14.16-.34,14.26-4.44.03-1.39-1.41-2.25-2.2-3.13-4.3-4.84-8.73-4.28-14.77-4.04l-17.5.7c-2.21.09-4.95,3.49-5.82,5.28-3.18,6.59-.97,13.18-1.11,19.87-.26,12.45-1.15,24.57-.06,37.15,1.06,12.17,0,24.08-.05,36.41l-.33,72.05c-.05,9.91-.26,19.14.28,29.08.81,14.86,1.02,29.81-.06,44.62-.85,11.6.16,22.24.16,33.96v140.5c0,13.51-.79,25.84-.13,39.26,1.25,25.14.43,49.93.36,75.24-.03,9.55.7,18.59-.32,28.13-1.43,13.47,1.25,30.72.47,37.9-.51,4.69,1.02,7.5,3.22,9.99,3.51,3.99,6.22,2.59,10.81,2.57l75.45-.47,243.6-.02,65.16.51c4.87.04,6.31,3.41,8.56,6.52,2.76,3.83,7.3,6.12,10.7,9.42,8.84,8.6,19.89,13.63,32.47,14.27,20.35,1.03,47.7,3.33,64.44-8.25,9.02-6.24,15.4-14.62,22.47-22.76l178.04-.36c10.01-.02,19.13.65,28.9-.07,15.5-1.14,30.37,1.68,46.43-.13,8.59-.97,15.96.15,24.52.16l113.36.2c3.43,0,6.33-2.52,7.15-5.19,3.18-10.38,3.59-20.52,2.6-31.25-1.36-14.6-.44-29.17.58-43.87.47-6.82-1.05-12.43-1.04-19.25l.11-183.76v-9.92s.09-135.01.09-135.01c0-6.53.7-11.87.26-18.39-1.01-14.91-1.06-30.14,0-45.68.51-7.52-.15-13.89-.06-20.8ZM766.22,865.14c7.34-2.13,14.71-2.41,21.65-6.29l39.1-6.98c11.92-2.13,23.38-2.95,35.32-4,11-.97,81.18-2.03,89.2-1.02l22.32,2.82c4.28.54,8.34.32,12.59,1.26,9.25,2.03,18.31,3.7,27.79,4.53,6.95.61,13.17,1.38,19.9,3.59,1.76.58,5.04-.67,6.09-1.72s2.28-3.75,2.28-6.26l-.02-509.96c-2.86-15.28,1.3-32.36-.18-44.66-1.14-9.43-.44-18.12.02-27.55.26-5.34-1.78-9.92.92-15.3,2.05-4.09-1.35-10.29-6.52-10.75-4.19-.37-34.81-2.5-32.9,6.11.93,4.2,7.32,5.27,11.07,5.1l10.82-.5c1.56-.07,3.5.08,4.04,1.19.31.64,1.17,1.58,1.17,3.3l.12,575.51c0,4.54-.19,7.83-1.82,11.13-8.2.03-15.22-2.19-22.81-3.05l-14.64-1.65c-9.2-1.04-17.8-2.22-26.96-2.48l-32.59-.93c-12.91-.37-26.01-2.75-38.56-.51l-6.39,1.14c-24.15,4.3-49.35,1.6-73.92,5.91l-15.92,2.79c-8.59,1.51-16.02,2.85-23.94,6.08-7.54,3.08-16.23,2.28-24,4.79l-22.24,7.19c-2.47.8-4.42,3.96-3.57,6.13.68,1.71,2.76,4.4,5.4,3.6,5.09-1.55,10.35-.77,15.79-2.35l21.39-6.19ZM529.48,864.12c-6.66-1.92-12.84-4.1-19.53-5.67l-43.06-10.13c-10.94-2.57-21.62-3.29-32.64-5.39-18.01-3.44-35.47-4.93-53.66-5.55l-24.32-.83c-10.92-.37-21.71-.95-32.58.01-30.08,2.65-45.88.16-79.77,5.84-6.77,1.14-13.28,1.52-19.77.9-1.64-4.6-1.52-7.9-1.52-12.98l.08-576.61,19.97-.72c3.06-.11,8.46-4.58,5.77-7.55-3.83-4.23-11.18-3.09-16.25-2.18-6.07,1.09-13.11-1.3-18.47.87-6.05,2.44-2.76,9.31-2.76,14.52l-.04,347.72.16,247.11c0,4.28,5.26,5.86,7.83,4.45,4.17-2.28,7.97-1.45,12.22-1.96l21.79-2.63c4.29-.52,8.68-1.19,12.85-2.06,6.56-1.36,12.58-1.77,19.36-2.6l15.9-1.96,76.86.34,27.46,2.34c21.9,1.87,43.15,5.67,64.25,11.27,8.01,2.12,15.12,4,23.33,5.3,14.63,2.33,32.57,12.83,37.39,6.31,1.37-1.85,2.02-7.34-.83-8.16Z"/>
</svg>