<?xml version="1.0" encoding="UTF-8"?>
<svg id="Layer_1" data-name="Layer 1" xmlns="http://www.w3.org/2000/svg" viewBox="0 0 1254 1120">
  <defs>
    <style>
      .cls-1 {
        fill: #96e4f0;
        stroke: #96e4f0;
        stroke-width: 18;
      }
    </style>
  </defs>
  <path class="cls-1" d="M366.22,207.75c-19.06,8.45-23.93,10.57-41.21,22.59-7.76,5.39-15.43,9.74-21.92,16.84-4.41,4.83-10.03,8.7-14.08,14.09l-11.75,15.64-11.86,18.81-8.33,14.45-7.17,20.22c-8.69,24.5-13.36,40.35-14.71,66.31-.78,14.9-1.44,29.62.08,44.55,1.2,11.82,1.47,23.84,4.67,35.28l6.94,24.81c4.07,14.56,8.78,28.67,13.31,43.05,1.35,4.29,3.68,7.1,1.52,12.05-.69,1.59-1.07,3.54-3.16,4.13-4.72,1.33-10.9-7.92-12.66-12.73l-7.93-21.63c-2.45-6.7-2.05-13.76-4.49-20.68s-4.06-14.94-5.86-22.32l-3.64-14.93c-6.64-27.22-6.87-56.1-1.8-83.74l4.64-25.24c1.12-6.12,2.71-12.12,4.51-18.02l5.54-18.16c6.86-22.48,25.96-52.91,41.84-70.94l6.33-7.19c5.68-6.45,13.33-11,19.03-17.27,4.79-5.27,10.5-7.45,16.06-11.33,12.7-8.88,25.82-15.52,40.02-21.65,18.82-8.12,32.8-12.16,53.8-13.37,17.77-1.02,35.42-.81,53.24-.02,23.09,1.02,36.07,4.65,57.23,14.27s21.25,8.73,39.86,22.9c10.49,7.99,25.89,20.12,32.74,31.31,1.83,2.98,25.8,27.91,30.01,38.79,5.72-11.87,27.87-39.26,35.8-45.81,6.76-5.59,11.54-12.83,18.77-17.64l10.18-6.76c2.87-1.91,4.85-4.01,7.39-6.31,4.92-4.48,11.24-6.72,16.58-10.78,4.02-3.05,9.61-3.13,14.08-5.44,12.06-6.22,32.62-13.32,46.39-14.18l15.9-1c19.96-1.26,39.13-.79,59.03,1.3,15.84,1.67,57.52,16.66,70.44,26.6,6.27,4.83,12.68,8.31,19.38,12.49,12.11,7.56,21.65,18.26,31.37,28.58,11.31,12,20.68,24.28,28.44,38.8,7.64,14.3,14.16,28.16,18.59,43.9l7,24.9c4.71,16.75,8.02,61.13,5.64,79.73-1.75,13.69-1.8,27.34-5.11,40.71l-7.41,29.94c-3.18,12.85-11.57,41.24-19.76,50.54-1.21,1.37-1.67,2.93-3.53,2.85-6.33-.27-7.13-12.94-1.66-22.86,4.64-8.4,6-17.61,8.38-26.98,4.03-15.83,8.91-30.92,11.79-47.05.58-3.25,1.31-6.01,2.05-9.22,2.34-10.1,1.9-45.55,1.46-57.64-.13-3.54-1.34-6.66-1.11-10.42.36-5.73-.59-11.61-2.21-17.14l-11.51-39.35c-2.29-7.82-4.99-15.36-8.3-22.73-3.29-7.31-8.25-13.69-12.09-20.62-4.21-7.62-10.07-13.14-15.07-20.05-10.91-15.06-24.97-26.05-39.96-36.78-7.43-5.32-14.03-10.32-22.54-14.12l-17.85-7.97c-24.93-11.14-54.61-16.22-82.26-14.28-19.63,1.38-45.77,3.13-64.22,11.45l-14.85,6.7c-10.54,4.75-38.77,24.07-46.4,32-10.28,10.68-20.18,21.37-29.47,32.99-2.66,3.33-4.18,6.62-7.48,9.79-6.44,6.17-8.17,21.96-19.08,20.45l-29.04-40.43c-19.22-26.76-48.96-45.55-78.02-59.86-7.46-3.67-14.96-5.35-23.06-7.61-20.66-5.76-42.1-7.35-63.59-5.14-6.84.7-13.46-.11-20.21,1.12-5.46.99-10.7,3.06-16.26,3.63-10.02,1.02-18.53,4.88-27.45,8.83ZM700.04,604.15c6.48-.07,12.67-1.49,19.2-.83,9.63.97,7.65-12.31,12.48-21.91,2.09-4.15,3.11-7.96,4.51-12.38,4.83-15.23,9.77-29.54,12.55-45.44.6-3.42,4.11-11.03,7.78-10.2,5.02,1.13,4.55,9.35,5.38,13.09l3.39,15.12c2.17,9.66,6.27,18.36,7.94,28.37.84,5.04,3.18,9.77,4.57,14.69,1.68,5.93,2.47,11.32,3.57,17.25,2.31,12.43,5.47,24.24,8.48,36.4,1.88,7.59,6.06,14.2,7.52,21.78,1.39,7.22,2.74,13.82,3.14,21.06.3,5.43,4.25,11.57,9.77,11.46,2.54-.84,6.97-5.11,7.3-7.76,1.17-9.42,5.73-16.01,9.26-24.27l10.09-23.68c2.75-6.46,5.38-12.49,8.2-19.07,3.63-8.46,3.64-12.21,17.62-12.24l244.97-.53c11.34-.02,21.23-1.74,32.51.85,1.5.34,4.15-.94,5.21-1.44,2.04-.96,2.39-9.61-.12-11.53-1.1-.84-3.04-2.16-5.64-2.16l-289.45-.11c-5.09,0-7.99,1.73-10.27,5.95-1.8,3.32-4.85,6.93-5.96,10.66-2.54,8.53-7.72,21.49-12.17,29-3.26,5.51-4.79,18.46-8.88,26.34-4.88-2.15-4.45-6.23-5.34-10.08l-7.48-32.7-14.09-53.89-8.62-39.36-12.26-44.25c-1.33-4.8-.44-9.32-3.96-13.58-2.32-2.81-8.04-5.91-10.84-1.59-3.14,4.85-6.11,26.19-10.16,35.23-2.88,6.44-3.9,13.33-6.27,19.91-3.21,8.92-4.68,17.62-7.52,26.67l-12.14,38.68c-.83,2.64-5.38,2.93-7.59,2.95l-51.83.4c-5.71.04-9.38,1.87-10.86,7.68-4.14,16.19-6.92,32.51-8.35,49.25-.66,7.78-2.32,14.97-3.49,22.61-.9,5.9-2.59,11.23-3.49,17.11l-4.08,26.75-2.5,9c-1.1,3.96-3.03,7.37-2.94,11.82.12,5.65-.65,11-3.18,16.15-3.91-3.25-3.08-7.46-3.83-11.64l-4.3-23.92c-1.59-8.84-3.36-17.27-4.61-26.14l-6.94-49-6.28-40.4-4.7-30.7-5.48-43.35-3.9-23.26c-2.37-14.14-3.53-28.12-6.95-41.98-2.8-11.34-3.71-22.11-5.25-33.58l-9.04-67.19c-.87-6.5-2.71-12.66-5.26-18.55-1.35-3.12-5.12-2.84-8.13-2.54-2.12.21-4.78,2.26-5.39,5.6-5.15,28.04-7.47,55.78-11.46,84.01l-5.42,38.3c-.75,5.33-1.83,10.02-2.63,15.5l-5.26,36.33c-1.49,10.26-8.6,64.88-10.31,70.53-3.1,10.25-2.86,29.18-6,28.5-3.48-.75-.89-11.08-4.59-18.58-8.01-16.22-23.53-4.04-29.78-10.23-5.26-5.21-6.67-13.01-9.22-19.55-3.64-9.34-7.44-17.89-11.79-26.81-3.56-7.32-2.14-17.15-12.46-21.62-2.35-1.02-4.33-.63-6.21.39-1.99,1.07-.94,3.48-1.87,5.49l-13.46,29.4-7.68,16.21c-3.1,6.55-5.1,12.92-11.26,18.09l-276.88-.06c-3.53,4.09-4.01,9.91.12,13.86l265.74-.26c5.94,0,10.35-1.91,16.28-.85,2.66.47,6.55-1.29,7.43-4.01,2.59-7.94,8.3-13.57,12.15-20.48,4.1-7.36,5.07-15.8,11.02-22.5,1.71-1.92,6.96-1.98,8.11.79l10.13,24.35c1.53,3.69,3.35,6.6,4.44,10.59,1.37,5.04,4.14,10.67,9.29,12.63,7.45,2.82,15.23-3.94,21.6,6.42,1.52,2.48,4.39,4.23,5.07,7.49,1.68,8.11,4.56,15.5,7.21,23.42,1.46,4.37,1.03,10.14,4.59,13.43,2.22,2.05,8.08,1.36,10.79.4,4.45-6.92,5.04-16.01,5.46-24.31.5-9.8,1.77-18.92,3.26-28.45l10.01-63.78,6.08-43.66c1.64-11.76,3.9-22.76,5.5-34.55l4.49-33.07c1.17-8.61,3.35-16.61,4.31-25.3.18-1.6.59-2.5,1.86-2.47,3.36.1.91,9.19,3.06,17.18,4.13,15.35,4.82,30.58,7.69,46.09,4.2,22.65,8.59,44.37,9.57,67.39.22,5.22,2.07,10.17,2.81,15.3,1.96,13.58,2.86,26.73,5.81,40.03,4.61,20.73,6.12,41.25,9.63,62.11l4.07,24.2,4.4,30.7c1.03,7.16,1.76,13.39,3.73,20.33-.49-1.72,8.69,55.55,8.89,57.19l2.3,18.12c.42,3.28,2.6,6.44,4.73,7.36,3.06,1.32,7.5,1.42,9.23-1.28,3.99-6.27,2.18-14.03,4.7-20.63,1.63-4.28,2.88-7.7,3.59-12.39l3.33-21.76,3.61-24.88,4.62-27.14,4.28-17.17,4.63-28.05c1-6.03,2.1-11.72,2.97-17.76l4.17-28.89c5.01-1.04,9.89-1.83,14.95-1.89l28.6-.32ZM373.05,734.47c9.35,9.86,17.96,19.79,27.74,29.28l25.91,25.16c6.83,6.63,14.29,12.13,20.92,18.87,5.07,5.16,10.05,9.55,15.7,14.05l10.02,7.98,13.84,10.25c6.42,4.76,13.79,11.86,19.97,16.56l15.35,11.68,16.1,13.49c9.09,7.62,20.37,12,29.33,19.7,5.96,5.12,11.9,8.92,18.4,13.41,7.91,5.47,14.55,11.99,23.45,16.33,4.36,2.13,8.75,5.35,12.83,7.64,4.63,2.6,6.77.1,10.41-1.81,8.85-4.64,16.63-9.62,24.69-15.45l9.22-6.66,29.67-21.31c5.23-3.75,11.47-5.51,15.89-10.4,8.01-8.86,37.62-28.57,42.65-33.65,7.45-7.53,15.26-13.46,23.82-19.69,7.03-5.12,13.56-11.27,20.04-17.23l13.05-12.03c5.15-4.74,10.91-8.64,16.05-13.57,14.04-13.48,27.5-26.86,40.86-40.97l19.97-21.09c3.32-3.51,5.2-8.21,9.27-11.15,5.74-4.14,8.43-10.55,12.92-15.61,8.2-9.25,15.67-18.34,23-28.16,3.21-4.3,7.22-7,9.45-12.5,2.08-5.14,8.17-8.77,8.89-14.95.37-3.14-3.81-5.44-6.29-5.44-2.12,0-6.05.97-7.67,3.28-6.93,9.94-13.36,19.54-21.13,28.99l-29.63,36.02c-12.5,15.2-38.47,42.16-53.15,56.1l-23.89,22.68c-5.9,5.61-11.69,11.24-18.03,16.15-4.86,3.77-9.1,7.4-13.57,11.68-6.67,6.38-14.27,11.2-21.57,17.1l-50.91,41.13-11.26,7.21-14.83,11.51c-16.8,13.03-33.59,25.39-52.55,36.36-7.91-2.4-14.89-7.22-21.75-12.15l-24.64-17.71-26.67-19.79-16.25-11.12c-4.79-3.28-9.1-6.59-13.62-10.27l-13.14-10.68c-4.77-3.88-9.24-8.52-14.31-11.91-7.79-5.22-13.79-11.81-21.2-17.5-13.03-10-24.82-20.19-36.4-31.82-9.39-9.43-20.14-17.01-28.34-27.43-4.11-5.23-9.17-8.91-13.77-13.61-5.44-5.56-10.86-11.02-16.06-16.97l-33.9-38.75-16.98-22.91c-2.61-3.52-6.78-7.55-8.8-11.39-3.79-8.47-11.7-17.26-21.35-11.5-2.12,1.87,2.11,6.72,3.52,8.85l11.15,16.88c5.45,8.24,12.36,14.95,17.94,23.13,7.69,11.28,16.32,21.06,25.97,31.23l13.7,14.45Z"/>
</svg>