<svg width="100" height="100" viewBox="0 0 100 100" fill="none" xmlns="http://www.w3.org/2000/svg">
<path d="M90.6667 66.3333L64 18.3333C60.4167 11.8749 55.4584 8.33325 50 8.33325C44.5417 8.33325 39.5834 11.8749 36 18.3333L9.33336 66.3333C5.95836 72.4583 5.58336 78.3333 8.2917 82.9583C11 87.5833 16.3334 90.1249 23.3334 90.1249H76.6667C83.6667 90.1249 89 87.5833 91.7084 82.9583C94.4167 78.3333 94.0417 72.4166 90.6667 66.3333ZM46.875 37.4999C46.875 35.7916 48.2917 34.3749 50 34.3749C51.7084 34.3749 53.125 35.7916 53.125 37.4999V58.3333C53.125 60.0416 51.7084 61.4582 50 61.4582C48.2917 61.4582 46.875 60.0416 46.875 58.3333V37.4999ZM52.9584 73.7916C52.75 73.9582 52.5417 74.1249 52.3334 74.2916C52.0834 74.4583 51.8334 74.5833 51.5834 74.6666C51.3334 74.7916 51.0834 74.8749 50.7917 74.9166C50.5417 74.9582 50.25 74.9999 50 74.9999C49.75 74.9999 49.4584 74.9582 49.1667 74.9166C48.9167 74.8749 48.6667 74.7916 48.4167 74.6666C48.1667 74.5833 47.9167 74.4583 47.6667 74.2916C47.4584 74.1249 47.25 73.9582 47.0417 73.7916C46.2917 72.9999 45.8334 71.9166 45.8334 70.8332C45.8334 69.7499 46.2917 68.6666 47.0417 67.8749C47.25 67.7083 47.4584 67.5416 47.6667 67.3749C47.9167 67.2082 48.1667 67.0832 48.4167 66.9999C48.6667 66.8749 48.9167 66.7916 49.1667 66.7499C49.7084 66.6249 50.2917 66.6249 50.7917 66.7499C51.0834 66.7916 51.3334 66.8749 51.5834 66.9999C51.8334 67.0832 52.0834 67.2082 52.3334 67.3749C52.5417 67.5416 52.75 67.7083 52.9584 67.8749C53.7084 68.6666 54.1667 69.7499 54.1667 70.8332C54.1667 71.9166 53.7084 72.9999 52.9584 73.7916Z" fill="white"/>
</svg>
