<?xml version="1.0" encoding="UTF-8"?>
<svg id="Layer_1" data-name="Layer 1" xmlns="http://www.w3.org/2000/svg" viewBox="0 0 1254 1120">
  <defs>
    <style>
      .cls-1 {
        fill: #97ddeb;
        stroke: #97ddeb;
        stroke-width: 18;
      }
    </style>
  </defs>
  <path class="cls-1" d="M693.89,898.27c-5.88,4.67-11.33,8.49-17.37,12.43l-22.04,14.39-17.26,11.5c-4.18,2.78-8.75,4.79-13.66,2.24-6.56-3.41-13.51-6.42-19.37-10.93-2.7-2.08-5.48-3.14-8.3-5.1l-15.25-10.62c-18.18-12.66-21.79-14.03-40.45-29.95l-19.9-16.98c-19.92-16.99-58.59-60.71-73.4-82.52l-26.31-38.74c-6.39-9.4-6.95-13.73-13.23-24.19-2.06-3.43-4.38-6.95-6.07-10.52l-8.99-18.92c-2.1-4.43-4.58-8.96-6.11-13.57s-2.94-8.49-5.01-12.8c-3.32-6.9-5.53-14-8.42-21.19-4.81-11.96-8.34-24.26-12.09-36.67-3.15-10.4-4.49-20.39-6.89-30.92-5.04-22.12-10-43.69-12.56-66.3l-2.63-23.22-2.49-14.61c-4.24-24.88-5.66-120.69-4.43-148.27l.77-17.3c.28-6.26,1.11-12.33.57-18.71-.33-3.86,1.8-7.09,5.88-7.55l32.44-3.67c5.7-.65,10.89-1.32,16.42-2.26l22.92-3.91c12.86-2.19,24.75-4.19,37.32-7.5l13.26-3.49c4.34-1.14,8.22-3.23,12.54-4.49l13.93-4.06c4.36-1.27,8.71-4.25,13.19-5.19s7.54-1.93,11.44-3.76c4.65-2.18,9.7-3.38,14.33-5.71l18.1-9.08c11.35-5.69,14.81-7.49,25.66-13.62,9.58-5.42,19.94-8.87,28.34-16.36,1.03-.92,3.72-.74,4.46-1.86,3.09-6.58,13.4-11.21,19.81-13.32,13.71-4.51,19,8.46,30.23,13.39,4.36,1.91,6.81,3.93,10.47,6.77s8.7,4.96,12.92,7.43c9.49,5.55,19.22,9.93,29.04,14.82l15.34,7.65c4.15,2.07,8.11,3.19,12.27,5.68,4.32,2.59,23.48,8.62,31.74,12.08,4.47,1.87,9.54,3.16,14.27,4.15s9.07,3.05,13.8,4.31c7.05,1.88,13.54,3.85,20.49,6.13,21.69,7.11,21.91,3.45,38.14,7.42,15.3,3.75,53.69,4.72,66.12,10.07,3.59,1.55,3.53,8.51,3.7,11.9l1.04,21.35.17,100.21-.88,17.95c-1.11,22.62-3.39,44.66-6.69,66.96l-3.37,22.71-2.28,13.66-4.52,26.77c-.68,4.04-1.74,8.04-2.98,11.89-2.75,8.48-4.41,16.67-5.97,25.49-1.89,10.74-5.36,20.93-8.9,31.3l-6.35,18.6c-1.33,3.91-2.76,7.86-4.5,11.65l-12.21,26.56c-2.18,4.74-3.47,9.83-6.66,13.98-2.03,2.64-2.62,5.6-4.2,8.43l-12.79,22.84c-2.23,3.99-14.6,22.77-14.27,22.12l-3.62,7.08c-3.8,7.43-9.6,13.45-14.57,20.27l-6.41,8.8c-10.19,13.99-42.97,50.64-55.87,62.82l-12.34,11.65-16.78,14.38-22.74,18.06ZM719.29,865.35c3.81-1.64,5.83-5.27,8.77-7.57,7.58-5.91,13.38-13.13,20.33-19.61,8.72-8.13,15.95-16.64,23.5-25.79,9.45-11.47,19.72-21.8,27.85-34.32,2.3-3.54,5.09-6.17,7.42-9.59l16.24-23.88c1.47-2.17,2.68-3.72,3.99-6.08l11.74-21.04c1.98-3.54,3.78-6.79,5.65-10.4l3.91-7.55c4.33-8.37,8.14-16.87,11.86-25.53l6.21-14.48,7.61-20.23,3.03-10.3c1.2-4.07,3.17-8.25,4.26-12.35l6.8-25.58,5.13-22.49c1.39-6.12,2.54-11.97,3.52-18.17l9.27-58.32c2.01-12.65,4.04-24.5,4.66-37.19l.83-16.97c.25-5.04,1.23-9.8,1.23-15.02l-.11-97.2c0-5.53-.93-10.67-1.11-16.04l-.55-16.42c-.06-1.7-.75-3.29-1.59-4.22-1.37-1.51-19.53-2.18-25.63-3.41-6.35-1.29-12.37-1.91-18.79-2.79l-13.38-1.85c-.82-.11-28.33-5.79-29.41-6.06l-35.44-9.09-17.79-4.77-18.51-7.14c-9.64-3.72-18.8-7.41-28.13-11.7-9.59-4.41-19.18-7.89-28.39-12.8-1.75-.93-3.03-2.22-5.04-3.03-8.83-3.57-16.29-9.05-24.42-13.86l-19.53-11.56-17.42-11.47c-2.58,4.82-8.96,5.44-15.58,10.27-3.73,2.72-7.63,4.09-11.5,6.47l-11.9,7.31c-10.41,6.4-24.85,14.45-35.74,19.37-7.96,3.6-15.86,6.42-23.34,10.85-3.81,2.26-7.98,3.21-11.83,5.11-7.71,3.81-15.4,6.19-23.45,8.84-4.31,1.42-7.58,4.09-12.47,4.59-6.42.66-12.58,3.25-18.89,4.96l-26.72,7.26c-26.16,7.11-51.15,7.26-76.48,12.69-4.67,1-10.68.05-14.59,2.21-3.35,3.39-2.79,9.58-3.02,13.92l-1.35,24.99.37,91.05,2.31,24.49c3.34,35.4,7.83,69.9,13.52,105.07,2.53,9.39,3.94,18.19,6.24,27.54l4.74,19.24c2.43,9.87,4.67,19.17,7.96,28.69l8.31,24.05c8.51,24.64,19.95,47.82,32.62,70.61l6.67,11.99c6.62,11.9,14.76,22.5,22.4,33.71,3.34,4.91,7.05,8.98,10,14.16,2.96,5.19,6.9,9.76,10.33,14.64,3.37,4.8,7.28,8.58,10.99,13.06l6.9,8.35c14.57,17.63,39.69,41.97,57.45,56.58l15.73,12.95c13.75,11.31,28.75,20.16,43.81,29.99,9.09,8.79,21.63,13.93,34.19,11.03,4.98-1.15,8.74-5.62,13.07-8.02,8.47-4.69,16.66-9.11,24.32-14.95,6.2-4.73,12.39-8.77,18.34-13.85,7.9-6.75,16.73-12.02,24.03-19.51,1.27-1.3,1.74-2.9,3.98-3.87Z"/>
</svg>